<svg id="Layer_3" data-name="Layer 3" xmlns="http://www.w3.org/2000/svg" viewBox="0 0 45 45"><defs><style>.cls-1{fill:#ff4a4a;}.cls-2{fill:#f93;}.cls-3{fill:#2dba60;}</style></defs><title>logo official</title><rect class="cls-1" x="22.78" y="22.78" width="22.22" height="22.22" rx="1.31"/><path class="cls-2" d="M951.43,30.31l-19.7,0a1.21,1.21,0,0,0-1.23,1.19v19.8a.49.49,0,0,0,.83.34L952.1,32C952.57,31.54,952.08,30.31,951.43,30.31Z" transform="translate(-930.5 -7.45)"/><path class="cls-3" d="M972.91,11a2,2,0,0,0-1.43-3.51h-37A2,2,0,0,0,933.09,11l18.48,18.16a2,2,0,0,0,2.86,0Z" transform="translate(-930.5 -7.45)"/></svg>